<?xml version="1.0" encoding="UTF-8"?>
<svg xmlns="http://www.w3.org/2000/svg" xmlns:xlink="http://www.w3.org/1999/xlink" viewBox="0 0 2000 809.82">
  <defs>
    <style>
      .cls-1 {
        fill: url(#linear-gradient-9);
      }

      .cls-1, .cls-2, .cls-3, .cls-4, .cls-5, .cls-6 {
        mix-blend-mode: overlay;
        opacity: .5;
      }

      .cls-7 {
        fill: #ff3b00;
      }

      .cls-8 {
        fill: url(#linear-gradient-2);
      }

      .cls-2 {
        fill: url(#linear-gradient-5);
      }

      .cls-9 {
        fill: #21bf73;
      }

      .cls-3 {
        fill: url(#linear-gradient-8);
      }

      .cls-4 {
        fill: url(#linear-gradient-3);
      }

      .cls-10 {
        isolation: isolate;
      }

      .cls-11 {
        fill: url(#linear-gradient-6);
      }

      .cls-5 {
        fill: url(#linear-gradient-4);
      }

      .cls-6 {
        fill: url(#linear-gradient-7);
      }

      .cls-12 {
        fill: url(#linear-gradient);
      }
    </style>
    <linearGradient id="linear-gradient" x1="49.1" y1="871.05" x2="510.68" y2="202.66" gradientUnits="userSpaceOnUse">
      <stop offset="0" stop-color="#f36527"/>
      <stop offset=".98" stop-color="#fdd22e"/>
      <stop offset="1" stop-color="#fed52f"/>
    </linearGradient>
    <linearGradient id="linear-gradient-2" x1="440.14" y1="687.28" x2="595.32" y2="462.58" xlink:href="#linear-gradient"/>
    <linearGradient id="linear-gradient-3" x1="480.56" y1="197.36" x2="222.49" y2="706.06" gradientUnits="userSpaceOnUse">
      <stop offset="0" stop-color="#fff"/>
      <stop offset=".09" stop-color="#fff" stop-opacity=".95"/>
      <stop offset=".27" stop-color="#fff" stop-opacity=".8"/>
      <stop offset=".5" stop-color="#fff" stop-opacity=".57"/>
      <stop offset=".79" stop-color="#fff" stop-opacity=".25"/>
      <stop offset="1" stop-color="#fff" stop-opacity="0"/>
    </linearGradient>
    <linearGradient id="linear-gradient-4" x1="486.96" y1="260.62" x2="272.31" y2="611.13" xlink:href="#linear-gradient-3"/>
    <linearGradient id="linear-gradient-5" x1="362.42" y1="375.14" x2="557.21" y2="702.69" gradientUnits="userSpaceOnUse">
      <stop offset="0" stop-color="#000"/>
      <stop offset=".73" stop-color="#000" stop-opacity="0"/>
    </linearGradient>
    <linearGradient id="linear-gradient-6" x1="807.73" y1="939.63" x2="1231.94" y2="325.36" xlink:href="#linear-gradient"/>
    <linearGradient id="linear-gradient-7" x1="980.1" y1="125.92" x2="1286.63" y2="641.36" gradientTransform="translate(1941.65 -71.6) rotate(119.8)" xlink:href="#linear-gradient-5"/>
    <linearGradient id="linear-gradient-8" x1="1424.79" y1="389.09" x2="1293.93" y2="647.03" xlink:href="#linear-gradient-3"/>
    <linearGradient id="linear-gradient-9" x1="1244.41" y1="486.02" x2="1124.7" y2="721.99" gradientTransform="translate(-107.07 601.14) rotate(-30.58)" xlink:href="#linear-gradient-3"/>
  </defs>
  <g class="cls-10">
    <g id="OBJECTS">
      <g>
        <g>
          <path class="cls-12" d="M433.77,584.03h-187.34l-54.86,97c-21.38,37.9-61.72,61.38-105.21,61.38h-49.13l255.22-452.57,58.85-104.43,67.69-119.98v173.68c0,17.35-3.01,34.5-8.8,50.73-2.96,8.36-6.66,16.43-11.03,24.15l-47.72,84.31-62.74,110.94h101.32l43.74,74.79Z"/>
          <path class="cls-8" d="M665.38,742.4h-49.13c-6.17,0-12.25-.49-18.22-1.41-36.3-5.54-68.62-27.41-86.99-59.97l-48.5-85.77-6.37-11.23-87.04-154.34,28.53-51.32,31-55.74,236.71,419.77Z"/>
          <path class="cls-4" d="M433.77,584.03h-187.34l-54.86,97c-21.38,37.9-61.72,61.38-105.21,61.38h-31.68c25.17-9.33,81.2-56.08,189.77-253.38,98.45-178.83,149.58-273.01,174.56-319.52v69.59c0,17.35-3.01,34.5-8.8,50.73-2.96,8.36-6.66,16.43-11.03,24.15l-47.72,84.31-62.74,110.94h101.32l13.61,23.28,30.13,51.51Z"/>
          <path class="cls-5" d="M419,235.74v3.35c0,17.35-3.01,34.5-8.8,50.73-2.96,8.36-6.66,16.43-11.03,24.15l-47.72,84.31-62.74,110.94h101.32l13.61,23.28h-150.5l165.86-296.77Z"/>
          <path class="cls-2" d="M598.03,740.99c-36.3-5.54-68.62-27.41-86.99-59.97l-48.5-85.77-6.37-11.23-87.04-154.34,28.53-51.32,200.36,362.62Z"/>
        </g>
        <g>
          <path class="cls-7" d="M458.69,63.08h89.19v32h-56.49v59.19h44.89v32h-44.89v68.78h56.49v32h-89.19V63.08Z"/>
          <path class="cls-7" d="M637.31,183.3l16.11-25.78c1.35-2.29,2.49-4.61,3.41-6.95.92-2.34,1.69-4.63,2.32-6.87.62-2.24,1.16-4.32,1.6-6.25.43-1.93.85-3.57,1.23-4.92.77-2.71,2.08-4.66,3.92-5.86,1.84-1.2,4.69-1.8,8.57-1.8,2.23,0,4.19.42,5.88,1.25,1.69.84,2.54,2.19,2.54,4.06,0,3.02-.97,6.74-2.9,11.17-1.94,4.43-4.55,9.14-7.84,14.14l-27,41.71,37.74,67.8c.97,1.87,1.86,3.38,2.69,4.53.82,1.15,1.62,2.03,2.39,2.65s1.55,1.07,2.33,1.33c.77.26,1.64.39,2.61.39,1.07,0,2.13-.29,3.19-.86,1.07-.57,2.28-1.43,3.63-2.58l3.05,3.75c-2.23,1.98-4.55,3.93-6.97,5.86-2.42,1.93-5.11,3.62-8.06,5.08-2.95,1.46-6.19,2.65-9.72,3.59-3.54.94-7.48,1.41-11.83,1.41-4.94,0-9.2-.91-12.78-2.73s-6.7-4.09-9.36-6.8c-2.66-2.71-4.94-5.62-6.82-8.75-1.88-3.12-3.51-5.99-4.86-8.59l-21.2-37.96-19.6,31.56c-1.35,2.29-2.49,4.61-3.41,6.95-.92,2.34-1.7,4.64-2.33,6.87-.63,2.24-1.16,4.32-1.6,6.25-.43,1.93-.85,3.57-1.23,4.92-.78,2.71-2.08,4.66-3.92,5.86s-4.69,1.8-8.57,1.8c-2.23,0-4.19-.42-5.88-1.25s-2.54-2.19-2.54-4.06c0-3.02.87-6.53,2.61-10.54,1.74-4.01,4.45-8.93,8.13-14.76l30.92-47.34-34.84-63.11c-1.16-2.08-2.25-3.83-3.26-5.24-1.02-1.41-2.49-2.11-4.43-2.11s-4.11,1.2-6.82,3.59l-2.9-3.91c2.23-1.98,4.64-3.93,7.26-5.86,2.61-1.93,5.44-3.62,8.49-5.08,3.05-1.46,6.36-2.66,9.94-3.59,3.58-.94,7.4-1.41,11.47-1.41,4.55,0,8.39.76,11.54,2.26,3.14,1.51,5.81,3.41,7.98,5.7,2.18,2.29,4.04,4.84,5.59,7.66,1.55,2.81,3.05,5.47,4.5,7.97l19.02,34.84Z"/>
          <path class="cls-7" d="M717.3,152.37c0-3.02-.65-5.65-1.96-7.89-1.31-2.24-3.51-3.36-6.61-3.36-1.65,0-3.05.31-4.21.94-1.16.62-2.42,1.51-3.77,2.66l-3.05-3.91c2.22-1.98,4.71-3.93,7.47-5.86,2.76-1.93,5.74-3.62,8.93-5.08,3.19-1.46,6.63-2.66,10.3-3.59,3.68-.94,7.55-1.41,11.61-1.41,4.36,0,8.08.73,11.18,2.19,3.09,1.46,5.68,3.2,7.77,5.24,2.08,2.03,3.65,4.16,4.72,6.4,1.06,2.24,1.69,4.14,1.88,5.7,1.94-2.92,4.24-5.57,6.89-7.97,2.66-2.39,5.57-4.45,8.71-6.17,3.14-1.72,6.48-3.05,10.02-3.98,3.53-.94,7.19-1.41,10.96-1.41,7.74,0,14.76,1.72,21.05,5.15,6.29,3.44,11.68,8.54,16.18,15.31,4.5,6.77,7.96,15.15,10.38,25.15,2.42,10,3.63,21.56,3.63,34.68,0,15.21-1.48,28.15-4.43,38.82-2.96,10.68-6.82,19.4-11.61,26.17-4.79,6.77-10.26,11.69-16.4,14.76-6.15,3.07-12.41,4.61-18.8,4.61-5.32,0-9.99-.57-14.01-1.72-4.02-1.14-7.48-2.55-10.38-4.22-2.91-1.66-5.32-3.36-7.26-5.08-1.93-1.72-3.48-3.15-4.64-4.3v76.24c0,1.35-.2,2.97-.58,4.84-.39,1.87-1.33,3.67-2.83,5.39-1.51,1.72-3.73,3.2-6.68,4.45-2.96,1.25-7,1.88-12.12,1.88s-9.17-.65-12.12-1.95c-2.95-1.3-5.2-2.87-6.75-4.69-1.55-1.82-2.52-3.65-2.91-5.47-.39-1.82-.58-3.31-.58-4.45v-198.09ZM761.87,251.89c0,.84.34,2.29,1.02,4.37.67,2.09,1.74,4.22,3.19,6.41,1.45,2.19,3.31,4.14,5.59,5.86,2.27,1.72,5.06,2.58,8.35,2.58,4.26,0,7.89-1.74,10.89-5.23,3-3.49,5.46-8.23,7.4-14.22,1.93-5.99,3.34-12.97,4.21-20.93.87-7.97,1.3-16.48,1.3-25.54,0-11.14-.56-20.57-1.67-28.28-1.11-7.71-2.73-13.93-4.87-18.67-2.13-4.74-4.67-8.17-7.62-10.31-2.96-2.13-6.27-3.2-9.95-3.2-2.13,0-4.26.65-6.39,1.95-2.13,1.3-4.04,2.92-5.73,4.84-1.7,1.93-3.08,4.09-4.14,6.48-1.07,2.4-1.6,4.69-1.6,6.87v87.01Z"/>
          <path class="cls-7" d="M921.84,273.29c0,1.35-.22,2.97-.65,4.84-.43,1.87-1.45,3.65-3.05,5.31-1.6,1.67-3.92,3.1-6.97,4.3-3.05,1.2-7.14,1.8-12.26,1.8s-9.15-.65-12.05-1.95c-2.9-1.3-5.06-2.84-6.46-4.61-1.4-1.77-2.27-3.59-2.61-5.47-.34-1.88-.51-3.38-.51-4.53V71.45c0-3.02-.65-5.65-1.96-7.89-1.31-2.24-3.51-3.36-6.61-3.36-1.65,0-3.07.29-4.28.86-1.21.57-2.49,1.43-3.85,2.58l-2.91-3.75c2.23-1.98,4.69-3.93,7.4-5.86,2.71-1.93,5.69-3.62,8.93-5.08,3.24-1.46,6.7-2.66,10.38-3.59s7.55-1.41,11.61-1.41c6.29,0,11.18.91,14.66,2.73,3.49,1.82,6.05,4.06,7.7,6.72,1.64,2.66,2.63,5.47,2.98,8.44.34,2.97.51,5.6.51,7.89v203.56Z"/>
          <path class="cls-7" d="M949.13,207.05c0-13.64,1.84-25.59,5.52-35.85,3.68-10.26,8.59-18.82,14.73-25.7,6.14-6.87,13.29-12.03,21.41-15.47,8.13-3.44,16.64-5.15,25.55-5.15s17.42,1.59,25.55,4.76c8.13,3.18,15.26,8.05,21.41,14.61,6.14,6.56,11.05,14.87,14.73,24.92,3.68,10.05,5.52,21.95,5.52,35.7s-1.84,25.73-5.52,36.24c-3.68,10.52-8.59,19.37-14.73,26.56-6.15,7.19-13.29,12.63-21.41,16.32-8.13,3.7-16.64,5.55-25.55,5.55s-17.42-1.75-25.55-5.24c-8.13-3.49-15.27-8.67-21.41-15.54-6.14-6.87-11.05-15.46-14.73-25.78-3.68-10.31-5.52-22.29-5.52-35.93ZM1038.41,205.49c0-8.33-.27-16.38-.8-24.14-.53-7.76-1.58-14.66-3.12-20.7-1.55-6.04-3.77-10.86-6.68-14.45-2.9-3.59-6.73-5.39-11.47-5.39s-8.57,1.9-11.47,5.7c-2.91,3.8-5.13,8.8-6.68,15-1.55,6.2-2.56,13.25-3.05,21.17-.49,7.92-.73,16.04-.73,24.37s.24,16.48.73,24.45c.48,7.97,1.5,15.08,3.05,21.33,1.55,6.25,3.77,11.27,6.68,15.07,2.9,3.8,6.72,5.7,11.47,5.7s8.57-1.98,11.47-5.94c2.91-3.96,5.13-9.16,6.68-15.62,1.55-6.46,2.59-13.75,3.12-21.87.53-8.12.8-16.35.8-24.68Z"/>
          <path class="cls-7" d="M1157.01,157.84c3.68-6.04,7.59-11.51,11.76-16.4,1.74-2.08,3.63-4.11,5.66-6.09,2.03-1.98,4.13-3.75,6.32-5.31,2.18-1.56,4.43-2.81,6.75-3.75,2.32-.94,4.64-1.41,6.97-1.41,4.94,0,8.8,1.59,11.61,4.76,2.81,3.18,4.21,7.63,4.21,13.36,0,3.54-.27,6.95-.8,10.23-.53,3.28-1.58,7.26-3.12,11.95h-4.06c-.58-3.23-1.93-5.91-4.06-8.05-2.13-2.13-5.23-3.2-9.29-3.2-3,0-5.95.6-8.85,1.8-2.9,1.2-5.74,2.68-8.49,4.45-2.76,1.77-5.37,3.7-7.84,5.78-2.47,2.09-4.71,4.06-6.75,5.94v101.39c0,1.35-.2,2.97-.58,4.84-.39,1.87-1.33,3.65-2.83,5.31-1.51,1.67-3.73,3.1-6.68,4.3-2.96,1.2-7,1.8-12.12,1.8s-9.17-.65-12.12-1.95-5.2-2.84-6.75-4.61c-1.55-1.77-2.52-3.59-2.91-5.47-.39-1.88-.58-3.38-.58-4.53v-120.6c0-3.02-.65-5.65-1.96-7.89-1.31-2.24-3.51-3.36-6.61-3.36-1.65,0-3.05.31-4.21.94-1.16.62-2.42,1.51-3.77,2.66l-3.05-3.91c2.22-1.98,4.71-3.93,7.47-5.86,2.76-1.93,5.74-3.62,8.93-5.08,3.19-1.46,6.63-2.66,10.3-3.59s7.55-1.41,11.61-1.41,7.72.6,10.67,1.8c2.95,1.2,5.37,2.76,7.26,4.69,1.89,1.93,3.36,4.09,4.43,6.48,1.06,2.4,1.86,4.82,2.4,7.26.53,2.45.85,4.79.94,7.03.1,2.24.15,4.14.15,5.7Z"/>
          <path class="cls-7" d="M1260.22,215.33c0,3.33.46,6.95,1.38,10.86.92,3.91,2.25,7.84,3.99,11.79,1.74,3.96,3.9,7.73,6.46,11.33,2.56,3.59,5.51,6.79,8.85,9.61,3.34,2.81,7.04,5.05,11.1,6.72,4.06,1.67,8.52,2.5,13.36,2.5,3.38,0,6.53-.41,9.44-1.25,2.9-.83,5.61-1.98,8.13-3.44,2.51-1.46,4.94-3.15,7.26-5.08,2.32-1.93,4.64-3.98,6.97-6.17l3.63,3.75c-2.23,3.23-5.08,6.77-8.56,10.62-3.49,3.86-7.7,7.47-12.63,10.86-4.94,3.38-10.7,6.2-17.27,8.44-6.58,2.24-14.08,3.36-22.5,3.36s-16.62-1.64-24.61-4.92c-7.98-3.28-15.07-8.2-21.26-14.76-6.19-6.56-11.16-14.74-14.88-24.53-3.73-9.79-5.59-21.25-5.59-34.37,0-9.48,1.11-18.17,3.34-26.09,2.23-7.91,5.25-15.05,9.08-21.4,3.82-6.35,8.27-11.92,13.36-16.72,5.08-4.79,10.43-8.77,16.04-11.95,5.61-3.18,11.34-5.57,17.2-7.19,5.86-1.61,11.49-2.42,16.91-2.42,7.16,0,13.41.83,18.73,2.5,5.32,1.67,9.75,3.91,13.28,6.72,3.53,2.81,6.17,6.07,7.91,9.76,1.74,3.7,2.61,7.58,2.61,11.64,0,4.9-1.31,9.3-3.92,13.2-2.61,3.91-6.1,7.32-10.46,10.23l-57.34,36.4ZM1289.4,183.62c1.26-.83,2.3-1.64,3.12-2.42s1.48-1.72,1.96-2.81c.48-1.09.85-2.45,1.09-4.06.24-1.61.36-3.62.36-6.01,0-2.6-.27-5.49-.8-8.67-.53-3.18-1.43-6.17-2.68-8.98-1.26-2.81-2.86-5.15-4.79-7.03-1.93-1.87-4.26-2.81-6.97-2.81-3.49,0-6.46,1.12-8.93,3.36-2.47,2.24-4.5,5.13-6.09,8.67-1.6,3.54-2.86,7.58-3.78,12.11-.92,4.53-1.62,9.09-2.11,13.67-.48,4.59-.78,8.98-.87,13.2-.1,4.22-.15,7.79-.15,10.7l30.63-18.9Z"/>
          <path class="cls-7" d="M1394.26,63.08h31.52l14.56,172.13h.6l15.46-172.13h35.68l15.46,172.13h.59l14.56-172.13h28.24l-21.11,223.96h-40.73l-14.87-151.01h-.59l-14.87,151.01h-43.4l-21.11-223.96Z"/>
          <path class="cls-7" d="M1619.85,272.98c0,1.35-.22,2.99-.65,4.92-.43,1.93-1.45,3.75-3.05,5.47-1.6,1.72-3.9,3.18-6.89,4.37-3,1.2-7.07,1.8-12.19,1.8s-9.15-.65-12.05-1.95c-2.9-1.3-5.08-2.84-6.53-4.61-1.45-1.77-2.35-3.59-2.68-5.47-.34-1.88-.51-3.38-.51-4.53v-120.6c0-3.02-.65-5.65-1.96-7.89-1.31-2.24-3.51-3.36-6.61-3.36-1.65,0-3.05.31-4.21.94-1.16.62-2.42,1.51-3.77,2.66l-3.05-3.91c2.22-1.98,4.71-3.93,7.47-5.86,2.76-1.93,5.74-3.62,8.93-5.08,3.19-1.46,6.63-2.66,10.3-3.59,3.68-.94,7.55-1.41,11.61-1.41,6.29,0,11.18.91,14.67,2.73,3.48,1.83,6.04,4.06,7.69,6.72,1.65,2.66,2.64,5.49,2.98,8.51.34,3.02.51,5.68.51,7.97v122.17ZM1570.78,89.26c0-2.91.6-5.7,1.82-8.36,1.21-2.66,2.9-4.97,5.08-6.95,2.18-1.98,4.69-3.54,7.54-4.69,2.86-1.15,5.98-1.72,9.37-1.72s6.36.57,9.22,1.72c2.85,1.15,5.34,2.71,7.47,4.69,2.13,1.98,3.8,4.3,5.01,6.95,1.21,2.66,1.81,5.44,1.81,8.36s-.6,5.83-1.81,8.44c-1.21,2.6-2.88,4.87-5.01,6.8-2.13,1.93-4.62,3.46-7.47,4.61-2.86,1.15-5.93,1.72-9.22,1.72s-6.51-.57-9.37-1.72c-2.86-1.15-5.37-2.68-7.54-4.61-2.18-1.93-3.87-4.19-5.08-6.8-1.21-2.6-1.82-5.41-1.82-8.44Z"/>
          <path class="cls-7" d="M1703.47,138.31v115.45c0,5.52.97,9.35,2.91,11.48,1.93,2.14,4.59,3.2,7.98,3.2,2.61,0,4.94-.78,6.97-2.34,2.03-1.56,3.78-3.33,5.23-5.31,1.74-2.19,3.24-4.74,4.5-7.65l4.5,2.19c-1.45,3.33-3.17,6.98-5.15,10.94-1.98,3.96-4.62,7.63-7.91,11.01-3.29,3.38-7.43,6.22-12.41,8.51-4.99,2.29-11.25,3.44-18.8,3.44-4.26,0-8.35-.68-12.27-2.03s-7.4-3.49-10.45-6.41c-3.05-2.91-5.49-6.56-7.33-10.93-1.84-4.37-2.75-9.63-2.75-15.78v-115.76h-16.26v-11.25c2.71,0,6.48-.75,11.33-2.26,4.83-1.51,9.8-4.04,14.88-7.58,5.08-3.54,9.8-8.28,14.15-14.22,4.36-5.94,7.45-13.28,9.29-22.03h11.61v46.08h23.66c7.75,0,11.61-1.41,11.61-4.22,0-1.04-.48-1.74-1.45-2.11s-2.05-.83-3.26-1.41c-1.21-.57-2.3-1.38-3.27-2.42-.97-1.04-1.45-2.76-1.45-5.15,0-2.92.85-5.21,2.54-6.87,1.69-1.66,3.9-2.5,6.61-2.5,1.74,0,3.26.39,4.57,1.17,1.3.78,2.39,1.83,3.26,3.12.87,1.3,1.53,2.79,1.96,4.45.44,1.67.65,3.34.65,5,0,6.77-1.81,12.16-5.44,16.17-3.63,4.01-9.46,6.01-17.49,6.01h-22.5Z"/>
          <path class="cls-7" d="M1801.46,154.56c3.58-5.52,7.65-10.47,12.19-14.84,1.84-1.87,3.89-3.69,6.17-5.47,2.27-1.77,4.69-3.36,7.26-4.76,2.56-1.41,5.27-2.52,8.13-3.36,2.86-.83,5.78-1.25,8.78-1.25,6.48,0,12.29,1.35,17.42,4.06,5.13,2.71,9.44,7.24,12.92,13.59,3.48,6.35,6.14,14.76,7.98,25.23,1.84,10.47,2.76,23.46,2.76,38.98s-1.26,28.23-3.78,39.37c-2.52,11.15-5.81,20.62-9.87,28.43-4.06,7.81-8.66,14.19-13.79,19.14-5.13,4.95-10.31,8.83-15.53,11.64-5.23,2.81-10.26,4.76-15.1,5.86-4.84,1.09-9,1.69-12.48,1.8l-1.45-6.4c4.35-1.15,8.22-3.28,11.61-6.41,3.38-3.12,6.24-8.25,8.56-15.39,2.32-7.13,4.09-16.74,5.3-28.82,1.21-12.08,1.82-27.65,1.82-46.71,0-13.12-.56-23.61-1.67-31.48-1.11-7.86-2.56-13.85-4.36-17.97-1.79-4.11-3.82-6.82-6.09-8.12-2.28-1.3-4.57-1.95-6.89-1.95-2.81,0-5.28.81-7.4,2.42-2.13,1.61-3.99,3.46-5.59,5.54-1.6,2.09-2.96,4.17-4.06,6.25-1.11,2.09-2.06,3.65-2.83,4.69v104.36c0,1.35-.2,2.99-.58,4.92-.39,1.93-1.33,3.75-2.83,5.47-1.5,1.72-3.73,3.18-6.68,4.37-2.95,1.2-6.99,1.8-12.12,1.8s-9.2-.65-12.2-1.95c-3-1.3-5.25-2.84-6.75-4.61-1.5-1.77-2.44-3.59-2.83-5.47-.39-1.88-.58-3.38-.58-4.53V71.45c0-3.02-.65-5.65-1.96-7.89-1.31-2.24-3.51-3.36-6.61-3.36-1.65,0-3.07.29-4.28.86-1.21.57-2.49,1.43-3.85,2.58l-2.91-3.75c2.23-1.98,4.69-3.93,7.4-5.86,2.71-1.93,5.69-3.62,8.93-5.08,3.24-1.46,6.7-2.66,10.38-3.59s7.55-1.41,11.61-1.41c6.29,0,11.18.91,14.66,2.73,3.49,1.82,6.05,4.06,7.7,6.72,1.64,2.66,2.63,5.47,2.98,8.44.34,2.97.51,5.6.51,7.89v84.83Z"/>
        </g>
        <path class="cls-9" d="M919.31,462.41c2.8-16.11,4.56-27.22,5.3-33.32s1.91-15.66,3.53-28.68c42.4-10.25,78.84-15.38,109.33-15.38,17.37,0,33.28,2.16,47.71,6.47,14.43,4.31,25.7,11.27,33.8,20.87,8.1,9.61,12.15,23.35,12.15,41.25,0,9.12-1.1,29.62-3.31,61.51-2.2,31.9-3.89,73.72-5.06,125.47-14.44-.32-28.8-.49-43.09-.49s-28.58.16-44.2.49c2.01-17.9,4.24-54.84,6.68-110.82-5.58,2.93-9.95,5.05-13.11,6.35-3.16,1.3-8.7,3.26-16.64,5.86-7.93,2.6-14.14,4.8-18.62,6.59-4.48,1.79-8.37,4.07-11.68,6.83-3.31,2.77-5.66,5.61-7.05,8.54-1.39,2.93-2.09,6.19-2.09,9.76,0,5.53,1.99,10.25,5.96,14.16,3.98,3.9,10.31,5.86,18.99,5.86,3.09,0,6.4-.28,9.94-.85,3.53-.57,8.4-1.99,14.58-4.27-4.27,12.53-9.35,30.84-15.23,54.92-12.66,2.28-24.67,3.42-36,3.42-18.25,0-33.46-2.81-45.6-8.42-12.14-5.61-21.5-14.68-28.05-27.22-6.55-12.53-9.83-25.06-9.83-37.59,0-7.65,1.21-15.13,3.64-22.46,2.43-7.32,6.22-14.48,11.37-21.48,5.15-6.99,11.18-12.97,18.1-17.94,6.92-4.96,16.37-9.64,28.37-14.03,12-4.39,27.19-8.54,45.59-12.45,7.65-1.62,14.68-3.38,21.09-5.25,6.4-1.87,10.97-3.5,13.68-4.88,2.72-1.38,4.93-3.01,6.62-4.88,1.69-1.87,2.9-3.82,3.64-5.86.74-2.03,1.11-4.19,1.11-6.47,0-6.18-2.36-10.94-7.07-14.28-4.71-3.33-11.62-5-20.75-5-25.31,0-56.59,7.9-93.81,23.68Z"/>
        <path class="cls-11" d="M1183.42,742.31h-501.13c-13.08-24.44-26.16-48.88-39.24-73.31h587.72c1.77-7.84,3.54-15.67,5.3-23.51l-41.56-138.89-35.58-115.21c21.95.33,37.35.49,46.19.49,10.31,0,24.39-.16,42.22-.49,2.8,12.53,7.99,34.18,15.59,64.93,7.59,30.76,13.08,54.84,16.47,72.25,1.92,9.61,3.75,21.81,5.53,36.62l4.64-19.53c1.47-5.2,3.16-11.14,5.07-17.82,1.91-6.67,4.34-14.65,7.28-23.92l14.34-44.43,23.83-68.1c18.39.33,32.29.49,41.71.49,8.24,0,22.94-.16,44.13-.49-43.45,116.98-86.89,233.95-130.34,350.93h-112.16Z"/>
        <path class="cls-9" d="M1460.6,462.41c2.8-16.11,4.56-27.22,5.3-33.32s1.91-15.66,3.53-28.68c42.4-10.25,78.84-15.38,109.33-15.38,17.37,0,33.28,2.16,47.71,6.47,14.43,4.31,25.7,11.27,33.8,20.87,8.1,9.61,12.15,23.35,12.15,41.25,0,9.12-1.1,29.62-3.31,61.51-2.2,31.9-3.89,73.72-5.06,125.47-14.44-.32-28.8-.49-43.09-.49s-28.58.16-44.2.49c2.01-17.9,4.24-54.84,6.68-110.82-5.58,2.93-9.95,5.05-13.11,6.35-3.16,1.3-8.7,3.26-16.64,5.86-7.93,2.6-14.14,4.8-18.62,6.59-4.48,1.79-8.37,4.07-11.68,6.83-3.31,2.77-5.66,5.61-7.05,8.54-1.39,2.93-2.09,6.19-2.09,9.76,0,5.53,1.99,10.25,5.96,14.16,3.98,3.9,10.31,5.86,18.99,5.86,3.09,0,6.4-.28,9.94-.85,3.53-.57,8.4-1.99,14.58-4.27-4.27,12.53-9.35,30.84-15.23,54.92-12.66,2.28-24.67,3.42-36,3.42-18.25,0-33.46-2.81-45.6-8.42-12.14-5.61-21.5-14.68-28.05-27.22-6.55-12.53-9.83-25.06-9.83-37.59,0-7.65,1.21-15.13,3.64-22.46,2.43-7.32,6.22-14.48,11.37-21.48,5.15-6.99,11.18-12.97,18.1-17.94,6.92-4.96,16.37-9.64,28.37-14.03,12-4.39,27.19-8.54,45.59-12.45,7.65-1.62,14.68-3.38,21.09-5.25,6.4-1.87,10.97-3.5,13.68-4.88,2.72-1.38,4.93-3.01,6.62-4.88,1.69-1.87,2.9-3.82,3.64-5.86.74-2.03,1.11-4.19,1.11-6.47,0-6.18-2.36-10.94-7.07-14.28-4.71-3.33-11.62-5-20.75-5-25.31,0-56.59,7.9-93.81,23.68Z"/>
        <path class="cls-9" d="M1883.26,568.83c-2.65,13.67-4.93,27.02-6.84,40.03l-4.86,29.78c-14.58,3.58-25.95,5.86-34.12,6.83-8.17.98-16.09,1.46-23.74,1.46-12.52,0-23.63-1.18-33.34-3.54-9.72-2.36-17.82-6.67-24.29-12.94-6.48-6.26-10.9-13.46-13.25-21.6-2.35-8.14-3.53-16.76-3.53-25.88,0-1.62.07-4.52.22-8.67.15-4.15.66-13.38,1.54-27.7l4.83-84.46h-34.41c.73-11.23,1.4-26.04,1.99-44.42l.66-22.7h36.59c.88-7.48,1.98-23.84,3.3-49.06l37.8-8.54c6.93-1.46,21.66-5.2,44.22-11.23-1.04,21.32-1.77,44.26-2.21,68.83h50.36c-1.18,33.85-1.77,56.23-1.77,67.13h-50.81l-2.66,61.02c-.3,9.12-.44,14.97-.44,17.58,0,7.81.77,14.32,2.32,19.53,1.55,5.21,4.27,8.95,8.17,11.23,3.9,2.28,8.21,3.42,12.93,3.42,3.53,0,7.22-.28,11.05-.85,3.83-.57,10.6-2.32,20.33-5.25Z"/>
        <path class="cls-9" d="M855.27,439.22c-1.47-7.97-4.49-15.42-9.05-22.33-4.56-6.91-10.23-12.69-17-17.33-6.78-4.64-15.2-8.21-25.29-10.74-10.08-2.52-20.43-3.78-31.03-3.78-7.65,0-14.98.61-21.97,1.83-6.99,1.22-13.44,2.89-19.32,5-5.89,2.12-11.44,4.84-16.67,8.18-5.23,3.34-9.61,6.75-13.14,10.25s-7.73,8.26-12.59,14.28l2.2-33.2c-13.71.33-28.01.49-42.9.49-12.82,0-28.09-.16-45.77-.49-.44,39.87-1.79,82.14-4.05,126.81-1.18,23.28-2.63,45.48-4.35,66.66l30.66,55.3c4.03-.02,7.98-.04,11.84-.04,13.97,0,28.32.16,43.04.49.59-27.99,1.74-55.49,3.44-82.5,1.69-27.01,4.61-46.42,8.74-58.22,4.13-11.8,9.98-20.79,17.57-26.97,7.59-6.18,15.66-9.28,24.21-9.28,9.72,0,17.79,3.62,24.21,10.86,6.41,7.24,9.62,20.06,9.62,38.44,0,11.88-.74,32.43-2.22,61.63-1.48,29.21-2.89,51.22-4.23,66.03,14.41-.32,30.37-.49,47.88-.49,12.94,0,26.84.16,41.7.49,0-14.8.37-30.92,1.12-48.33l3.8-88.36c1.19-20.5,1.79-33.85,1.79-40.03,0-8.46-.74-16.68-2.21-24.65Z"/>
        <path class="cls-9" d="M1885.07,741.05c-189.55.42-379.1.84-568.65,1.25,8.93-24.44,17.86-48.88,26.79-73.31h541.86v72.06Z"/>
        <path class="cls-6" d="M684.17,742.31c-7.83-13.29-15.67-26.58-23.5-39.87,217.2-1.72,434.4-3.45,651.6-5.17-5.56,15.01-11.12,30.03-16.68,45.04h-611.42Z"/>
        <path class="cls-3" d="M1271.93,697.47c35.87-101.87,71.75-203.74,107.62-305.6,15.46-.16,30.91-.32,46.37-.49-37.88,101.96-75.77,203.93-113.65,305.89-13.45.07-26.89.13-40.34.2Z"/>
        <path class="cls-1" d="M1252,694.74c-31.02-101.12-62.05-202.25-93.07-303.37,15.4.16,30.8.33,46.19.49,26.44,101.85,52.87,203.69,79.31,305.54-10.81-.89-21.62-1.77-32.43-2.66Z"/>
      </g>
    </g>
  </g>
</svg>